<?xml version="1.0" encoding="UTF-8"?>
<svg width="25px" height="20px" viewBox="0 0 25 20" version="1.1" xmlns="http://www.w3.org/2000/svg" xmlns:xlink="http://www.w3.org/1999/xlink">
    <!-- Generator: Sketch 46.2 (44496) - http://www.bohemiancoding.com/sketch -->
    <title>”</title>
    <desc>Created with Sketch.</desc>
    <defs/>
    <g id="Page-1" stroke="none" stroke-width="1" fill="none" fill-rule="evenodd">
        <path d="M0,0 L9.28,0 C10.1866712,2.933348 10.64,5.9866508 10.64,9.16 C10.64,12.3333492 9.8000084,14.8666572 8.12,16.76 C6.4399916,18.6533428 3.9466832,19.6 0.64,19.6 L0.64,15.12 C3.30668,15.12 4.64,13.4933496 4.64,10.24 L4.64,8.72 L0,8.72 L0,0 Z M13.52,0 L22.8,0 C23.7066712,2.933348 24.16,5.9866508 24.16,9.16 C24.16,12.3333492 23.3200084,14.8666572 21.64,16.76 C19.9599916,18.6533428 17.4666832,19.6 14.16,19.6 L14.16,15.12 C16.82668,15.12 18.16,13.4933496 18.16,10.24 L18.16,8.72 L13.52,8.72 L13.52,0 Z" id="”" fill="#FFC929"/>
    </g>
</svg>